<svg width="158" height="33" viewBox="0 0 158 33" fill="none" xmlns="http://www.w3.org/2000/svg">
<path d="M47.734 19.0664C47.734 20.1922 47.5284 21.2495 47.121 22.2381C46.7136 23.2267 46.1549 24.0862 45.4488 24.8206C44.7427 25.555 43.9162 26.1321 42.9657 26.5598C42.0151 26.9835 40.9986 27.1974 39.9161 27.1974C39.2604 27.1974 38.6047 27.1126 37.9529 26.9431V22.573C38.2439 22.7546 38.5581 22.8918 38.8957 22.9846C39.2332 23.0774 39.5747 23.1258 39.92 23.1258C40.4554 23.1258 40.9637 23.0209 41.4409 22.8071C41.9181 22.5932 42.3333 22.3026 42.6902 21.9354C43.0472 21.5682 43.3226 21.1365 43.5283 20.6442C43.7339 20.1519 43.8348 19.6273 43.8348 19.0704V6.85181H47.734V19.0664Z" fill="white"/>
<path d="M64.6503 19.4617C64.6503 20.5956 64.4563 21.6529 64.0644 22.6334C63.6725 23.614 63.141 24.4573 62.4698 25.1716C61.7986 25.8858 61.0071 26.4467 60.1031 26.8583C59.199 27.2699 58.2291 27.4757 57.1893 27.4757C56.1495 27.4757 55.195 27.2699 54.291 26.8583C53.387 26.4467 52.5955 25.8858 51.9165 25.1716C51.2375 24.4573 50.706 23.61 50.3141 22.6334C49.9223 21.6529 49.7283 20.5997 49.7283 19.4617C49.7283 18.3238 49.9223 17.2383 50.3141 16.2538C50.706 15.2692 51.2375 14.4218 51.9165 13.7075C52.5955 12.9933 53.3831 12.4324 54.291 12.0248C55.195 11.6173 56.1611 11.4155 57.1893 11.4155C58.2174 11.4155 59.1952 11.6052 60.1031 11.9885C61.0071 12.3719 61.7947 12.9166 62.4698 13.6188C63.141 14.3249 63.6764 15.1683 64.0644 16.1569C64.4563 17.1455 64.6503 18.2431 64.6503 19.4537V19.4617ZM60.8984 19.4617C60.8984 18.8363 60.8014 18.2714 60.6036 17.767C60.4096 17.2626 60.1418 16.8268 59.8043 16.4636C59.4668 16.1004 59.0749 15.822 58.6248 15.6283C58.1748 15.4346 57.6936 15.3378 57.1854 15.3378C56.6771 15.3378 56.196 15.4346 55.746 15.6283C55.2959 15.822 54.904 16.1004 54.5742 16.4636C54.2406 16.8268 53.9806 17.2626 53.7905 17.767C53.6004 18.2714 53.5034 18.8363 53.5034 19.4617C53.5034 20.0469 53.6004 20.5916 53.7905 21.092C53.9806 21.5923 54.2444 22.0281 54.5742 22.3954C54.9079 22.7626 55.2959 23.0531 55.746 23.267C56.196 23.4808 56.6771 23.5857 57.1854 23.5857C57.6936 23.5857 58.1748 23.4849 58.6248 23.2871C59.0749 23.0894 59.4668 22.811 59.8043 22.4518C60.1418 22.0927 60.4057 21.6569 60.6036 21.1485C60.7975 20.636 60.8984 20.0751 60.8984 19.4617Z" fill="white"/>
<path d="M81.3299 19.4618C81.3299 20.6522 81.136 21.7417 80.7441 22.7263C80.3522 23.7109 79.8207 24.5542 79.1495 25.2604C78.4782 25.9666 77.6867 26.5113 76.7827 26.8987C75.8787 27.2861 74.9088 27.4798 73.869 27.4798C72.8291 27.4798 71.8747 27.2821 70.9707 26.8826C70.0667 26.4871 69.2752 25.9303 68.5962 25.2241C67.9172 24.5139 67.3857 23.6705 66.9938 22.69C66.602 21.7094 66.408 20.6361 66.408 19.4618V5.95593H70.1443V13.0498C70.346 12.7835 70.5866 12.5495 70.8737 12.3396C71.1608 12.1298 71.4673 11.9603 71.801 11.8272C72.1346 11.694 72.4761 11.5931 72.8291 11.5205C73.1822 11.4479 73.5275 11.4156 73.8651 11.4156C74.901 11.4156 75.871 11.6173 76.7789 12.0168C77.6829 12.4203 78.4705 12.9812 79.1456 13.6995C79.8168 14.4178 80.3522 15.2652 80.7402 16.2457C81.1321 17.2263 81.3261 18.2956 81.3261 19.4578L81.3299 19.4618ZM77.5781 19.4618C77.5781 18.8767 77.4811 18.3279 77.2832 17.8235C77.0892 17.3191 76.8215 16.8793 76.484 16.5121C76.1464 16.1449 75.7546 15.8543 75.3045 15.6485C74.8544 15.4387 74.3733 15.3378 73.8651 15.3378C73.3568 15.3378 72.8757 15.4548 72.4256 15.6848C71.9756 15.9148 71.5837 16.2256 71.2462 16.6089C70.9086 16.9922 70.6448 17.4321 70.4547 17.9284C70.2645 18.4248 70.1676 18.9372 70.1676 19.4658C70.1676 20.0509 70.2645 20.5957 70.4547 21.0961C70.6448 21.5964 70.9086 22.0322 71.2462 22.3994C71.5837 22.7666 71.9756 23.0572 72.4256 23.271C72.8757 23.4849 73.3568 23.5898 73.8651 23.5898C74.3733 23.5898 74.8544 23.4849 75.3045 23.271C75.7546 23.0572 76.1464 22.7666 76.484 22.3994C76.8215 22.0322 77.0854 21.5964 77.2832 21.0961C77.4772 20.5957 77.5781 20.0509 77.5781 19.4658V19.4618Z" fill="white"/>
<path d="M91.4097 27.1933H82.8972V23.3356H91.4097C91.6657 23.3356 91.883 23.2428 92.0653 23.0532C92.2477 22.8635 92.3369 22.6375 92.3369 22.3712C92.3369 22.1049 92.2477 21.9193 92.0653 21.8305C91.883 21.7457 91.6657 21.7014 91.4097 21.7014H87.5375C86.8935 21.7014 86.2882 21.5722 85.7218 21.318C85.1592 21.0638 84.6664 20.7168 84.2474 20.2769C83.8284 19.8371 83.4986 19.3246 83.258 18.7395C83.0175 18.1544 82.8972 17.5249 82.8972 16.851C82.8972 16.1771 83.0175 15.5517 83.258 14.9625C83.4986 14.3774 83.8284 13.865 84.2474 13.4292C84.6664 12.9934 85.1553 12.6504 85.7218 12.4002C86.2843 12.15 86.8896 12.0249 87.5375 12.0249H95.08V15.8826H87.5375C87.2815 15.8826 87.0642 15.9754 86.8818 16.165C86.6995 16.3547 86.6103 16.5807 86.6103 16.847C86.6103 17.1133 86.6995 17.3554 86.8818 17.5491C87.0642 17.7428 87.2815 17.8396 87.5375 17.8396H91.4097C92.046 17.8396 92.6473 17.9526 93.2099 18.1746C93.7725 18.3965 94.2652 18.7072 94.6843 19.1027C95.1033 19.4981 95.4331 19.9783 95.6814 20.5352C95.9258 21.092 96.05 21.7054 96.05 22.3672C96.05 23.0289 95.9258 23.6665 95.6814 24.2476C95.437 24.8286 95.1033 25.3411 94.6843 25.781C94.2652 26.2208 93.7764 26.5678 93.2099 26.818C92.6473 27.0682 92.046 27.1933 91.4097 27.1933Z" fill="white"/>
<path d="M114.068 21.0921C114.068 21.9354 113.913 22.7223 113.603 23.4608C113.292 24.1992 112.873 24.8448 112.342 25.3977C111.81 25.9505 111.189 26.3903 110.479 26.7091C109.769 27.0319 109.009 27.1933 108.202 27.1933H98.4207V6.85181H108.202C109.013 6.85181 109.769 7.01322 110.479 7.33603C111.189 7.65885 111.81 8.09465 112.342 8.64748C112.873 9.2003 113.296 9.84594 113.603 10.5844C113.913 11.3228 114.068 12.1137 114.068 12.9531C114.068 13.3324 114.018 13.7197 113.917 14.1152C113.816 14.5106 113.676 14.894 113.494 15.2652C113.312 15.6324 113.094 15.9714 112.838 16.274C112.582 16.5767 112.303 16.8269 111.992 17.0246C112.311 17.2062 112.598 17.4483 112.85 17.755C113.106 18.0616 113.323 18.4006 113.506 18.7678C113.688 19.135 113.828 19.5224 113.921 19.9259C114.018 20.3294 114.064 20.7168 114.064 21.0961L114.068 21.0921ZM102.339 14.9908H108.206C108.477 14.9908 108.733 14.9384 108.97 14.8335C109.207 14.7285 109.412 14.5833 109.591 14.4017C109.769 14.2201 109.905 13.9982 110.006 13.748C110.107 13.4978 110.157 13.2315 110.157 12.945C110.157 12.6585 110.107 12.3962 110.006 12.15C109.905 11.9039 109.765 11.69 109.591 11.5044C109.416 11.3188 109.207 11.1776 108.97 11.0726C108.733 10.9677 108.477 10.9153 108.206 10.9153H102.339V14.9868V14.9908ZM102.339 23.1178H108.206C108.477 23.1178 108.733 23.0653 108.97 22.9604C109.207 22.8555 109.412 22.7102 109.591 22.5286C109.769 22.347 109.905 22.1291 110.006 21.883C110.107 21.6368 110.157 21.3705 110.157 21.0881C110.157 20.8056 110.107 20.5393 110.006 20.2931C109.905 20.047 109.765 19.8331 109.591 19.6475C109.416 19.4619 109.207 19.3206 108.97 19.2157C108.733 19.1108 108.477 19.0583 108.206 19.0583H102.339V23.1137V23.1178Z" fill="white"/>
<path d="M122.441 23.4768C122.588 23.5252 122.732 23.5535 122.876 23.5696C123.019 23.5857 123.167 23.5898 123.31 23.5898C123.675 23.5898 124.024 23.5373 124.362 23.4324C124.699 23.3275 125.013 23.1782 125.308 22.9845C125.603 22.7908 125.867 22.5527 126.1 22.2743C126.333 21.9959 126.519 21.6852 126.666 21.3462L129.394 24.1991C129.048 24.7116 128.649 25.1675 128.199 25.5751C127.749 25.9827 127.264 26.3257 126.74 26.6122C126.216 26.8987 125.665 27.1125 125.091 27.2578C124.517 27.4031 123.919 27.4757 123.31 27.4757C122.282 27.4757 121.316 27.278 120.412 26.8785C119.508 26.479 118.716 25.9262 118.037 25.22C117.358 24.5138 116.827 23.6664 116.435 22.6859C116.043 21.7053 115.849 20.632 115.849 19.4577C115.849 18.2835 116.043 17.1576 116.435 16.165C116.827 15.1723 117.358 14.3249 118.037 13.6268C118.716 12.9287 119.508 12.384 120.412 11.9966C121.316 11.6092 122.282 11.4155 123.31 11.4155C123.919 11.4155 124.517 11.4922 125.099 11.6415C125.681 11.7948 126.232 12.0087 126.755 12.2952C127.279 12.5817 127.768 12.9247 128.222 13.3363C128.676 13.7479 129.076 14.2079 129.421 14.7204L122.437 23.4728L122.441 23.4768ZM124.35 15.4911C124.175 15.4265 124.008 15.3821 123.838 15.362C123.671 15.3418 123.496 15.3337 123.314 15.3337C122.806 15.3337 122.325 15.4306 121.875 15.6243C121.424 15.8179 121.033 16.0964 120.703 16.4555C120.369 16.8146 120.109 17.2464 119.919 17.7549C119.729 18.2593 119.632 18.8323 119.632 19.4658C119.632 19.607 119.64 19.7684 119.651 19.95C119.667 20.1316 119.686 20.3132 119.721 20.4948C119.756 20.6763 119.791 20.8579 119.838 21.0274C119.884 21.1969 119.942 21.3502 120.016 21.4794L124.354 15.4911H124.35Z" fill="white"/>
<path d="M145.332 27.1932H144.432L142.985 25.107C142.632 25.4379 142.255 25.7486 141.86 26.0351C141.464 26.3257 141.049 26.5758 140.61 26.7857C140.172 26.9955 139.726 27.165 139.268 27.2901C138.81 27.4152 138.344 27.4757 137.871 27.4757C136.843 27.4757 135.877 27.2941 134.973 26.935C134.069 26.5758 133.277 26.0513 132.598 25.3693C131.919 24.6833 131.388 23.844 130.996 22.8513C130.604 21.8587 130.41 20.7288 130.41 19.4617C130.41 18.2794 130.604 17.194 130.996 16.2053C131.388 15.2167 131.919 14.3693 132.598 13.6591C133.277 12.9489 134.069 12.4001 134.973 12.0047C135.877 11.6133 136.843 11.4155 137.871 11.4155C138.344 11.4155 138.814 11.4761 139.276 11.6011C139.741 11.7222 140.191 11.8957 140.626 12.1136C141.06 12.3315 141.479 12.5857 141.875 12.8803C142.271 13.1749 142.64 13.4896 142.989 13.8326L144.436 12.0329H145.336V27.1973L145.332 27.1932ZM141.58 19.4617C141.58 18.9331 141.483 18.4207 141.285 17.9243C141.088 17.428 140.824 16.9882 140.486 16.6048C140.149 16.2215 139.757 15.9148 139.307 15.6808C138.857 15.4507 138.376 15.3337 137.867 15.3337C137.359 15.3337 136.878 15.4225 136.428 15.6041C135.978 15.7857 135.586 16.048 135.256 16.399C134.922 16.7501 134.662 17.1819 134.472 17.6984C134.282 18.2149 134.185 18.804 134.185 19.4658C134.185 20.1276 134.282 20.7167 134.472 21.2332C134.662 21.7497 134.926 22.1815 135.256 22.5325C135.59 22.8836 135.978 23.1459 136.428 23.3275C136.878 23.5091 137.359 23.5978 137.867 23.5978C138.376 23.5978 138.857 23.4808 139.307 23.2508C139.757 23.0208 140.149 22.7101 140.486 22.3268C140.824 21.9434 141.088 21.5036 141.285 21.0072C141.483 20.5109 141.58 19.9984 141.58 19.4698V19.4617Z" fill="white"/>
<path d="M151.893 27.1933H148.168V12.0007H149.069L150.295 13.8004C150.896 13.2315 151.575 12.7957 152.339 12.489C153.104 12.1823 153.895 12.029 154.714 12.029H158V15.8866H154.714C154.322 15.8866 153.953 15.9633 153.608 16.1126C153.263 16.266 152.964 16.4718 152.708 16.7381C152.452 17.0044 152.254 17.3151 152.107 17.6742C151.959 18.0334 151.889 18.4167 151.889 18.8243V27.1933H151.893Z" fill="white"/>
<path d="M30.0069 9.03485C30.3833 8.10675 30.7169 6.54109 30.7945 5.12472C30.8877 3.40572 30.7751 1.75532 28.5248 2.16691C27.6324 2.32832 25.5839 2.68342 25.1571 3.13536C22.5459 1.16618 19.3373 0 15.8648 0C12.3923 0 9.17978 1.16618 6.56474 3.13536C6.13796 2.68342 4.08939 2.32832 3.19701 2.16691C0.946689 1.75935 0.834172 3.40572 0.927289 5.12472C1.00489 6.54109 1.33856 8.10675 1.7149 9.03485C0.62078 11.2744 0 13.8125 0 16.5C0 25.6115 7.10405 33 15.8648 33C24.6255 33 31.7296 25.6115 31.7296 16.5C31.7296 13.8125 31.1088 11.2784 30.0108 9.03485H30.0069Z" fill="white"/>
<path fill-rule="evenodd" clip-rule="evenodd" d="M15.9193 5.99634C18.6973 5.99634 20.967 8.35694 20.967 11.2462V17.9285C20.967 20.8177 18.6973 23.1783 15.9193 23.1783C13.1413 23.1783 10.8716 20.8177 10.8716 17.9285V11.2462C10.8716 8.35694 13.1413 5.99634 15.9193 5.99634Z" fill="#B2B2B2"/>
<path fill-rule="evenodd" clip-rule="evenodd" d="M14.5147 12.949C15.4226 13.2274 16.346 13.1144 17.25 12.949C18.4993 12.719 19.5585 14.0304 19.5585 15.35V15.8665C19.5585 17.186 18.4372 18.7395 17.25 18.2674C15.7679 17.6783 16.6913 19.0503 17.413 19.3206C18.6817 19.7968 20.2608 20.6482 20.6914 19.365C20.6371 20.6442 18.8563 20.5392 17.7466 20.0752C16.8193 19.6838 15.1626 19.6555 13.9948 20.0792C12.8696 20.4868 11.1237 20.6361 11.0732 19.365C11.5194 20.6886 13.149 19.7443 14.472 19.2762C15.2247 19.0099 15.8144 17.7549 14.5147 18.2674C13.3274 18.7355 12.2062 17.186 12.2062 15.8665V15.35C12.2062 14.0304 13.2964 12.5737 14.5147 12.949Z" fill="#1D1D1B"/>
<path fill-rule="evenodd" clip-rule="evenodd" d="M10.7086 7.46107C10.0645 7.62652 9.59504 8.17934 9.08678 8.25601C8.2332 8.3811 7.84134 7.02527 8.45048 6.46841C9.21869 5.76628 10.2352 6.24647 10.7706 6.93246C10.9103 7.11001 10.9452 7.40055 10.7086 7.46107Z" fill="#1D1D1B"/>
<path fill-rule="evenodd" clip-rule="evenodd" d="M21.0173 7.46107C21.6614 7.62652 22.1308 8.17934 22.6391 8.25601C23.4927 8.3811 23.8846 7.02527 23.2754 6.46841C22.5072 5.76628 21.4907 6.24647 20.9552 6.93246C20.8156 7.11001 20.7807 7.40055 21.0173 7.46107Z" fill="#1D1D1B"/>
</svg>
